# xmcd
#
# Track frame offsets:
#	150
#	13289
#	31608
#	46256
#	58139
#	72631
#	84629
#	95847
#	121787
#	137846
#	150432
#	165487
#	179401
#	202121
#	218723
#
# Disc length: 3014 seconds
#
# Revision: 1
# Processed by: cddbd v1.5.1PL2 Copyright (c) Steve Scherf et al.
# Submitted via: audiograbber 1.83.01
#
DISCID=d30bc40f
DTITLE=The Twang - Live in Hamburg
DYEAR=2005
DGENRE=Country
TTITLE0=Spice up your Life
TTITLE1=Basket Case
TTITLE2=The Boxer
TTITLE3=Clint Eastwood
TTITLE4=I just called to say I love you
TTITLE5=Born to be wild
TTITLE6=Born to be alive
TTITLE7=YMCA
TTITLE8=Stayin' Alive
TTITLE9=Ghostbusters
TTITLE10=I shot the Sheriff
TTITLE11=Ace of Spades
TTITLE12=Another Brick in the Wall Part 2
TTITLE13=Fight for your Right (To Party)
TTITLE14=I'm on Fire
EXTD=
EXTT0=
EXTT1=
EXTT2=
EXTT3=
EXTT4=
EXTT5=
EXTT6=
EXTT7=
EXTT8=
EXTT9=
EXTT10=
EXTT11=
EXTT12=
EXTT13=
EXTT14=
PLAYORDER=
